<svg version="1.1" id="Layer_1" xmlns="http://www.w3.org/2000/svg" xmlns:xlink="http://www.w3.org/1999/xlink" x="0px" y="0px"
	 width="100%" viewBox="0 0 1024 1024" enable-background="new 0 0 1024 1024" xml:space="preserve">
<path fill="#000000" opacity="1.000000" stroke="none" 
	d="
M0.999999,271.000000 
	C1.000000,181.028046 1.000000,91.056091 1.000000,1.048308 
	C342.333344,1.048308 683.666687,1.048308 1025.000000,1.048308 
	C1025.000000,21.423574 1025.000000,41.750534 1024.630859,62.494591 
	C1023.222107,60.273525 1022.496338,57.452625 1021.086060,55.030262 
	C1016.164917,46.577442 1011.350281,38.027554 1005.834900,29.966328 
	C1001.070007,23.002119 994.059387,18.398146 986.361389,14.996503 
	C977.049927,10.881939 967.866272,7.026077 957.275696,6.273486 
	C952.978577,5.968124 948.303589,4.473164 943.904785,5.105852 
	C934.438721,6.467360 924.680786,7.456919 915.775269,10.645728 
	C904.261108,14.768613 894.739441,22.582718 886.007996,31.321491 
	C741.897217,175.554047 597.754822,319.755188 453.466888,463.810516 
	C442.689148,474.570892 433.893707,485.823730 431.468628,501.444489 
	C429.668854,513.037598 426.159576,524.359131 424.196777,535.934753 
	C422.297241,547.137085 421.107880,558.484497 420.142731,569.813904 
	C419.074982,582.347412 418.724640,594.940613 417.824432,607.490784 
	C417.558197,611.202087 419.026581,612.225342 422.365570,612.007690 
	C433.924103,611.254333 445.487488,610.575623 457.048889,609.866150 
	C457.214417,609.856018 457.377869,609.813782 457.542725,609.789734 
	C466.149231,608.535889 474.742279,607.178345 483.366577,606.062012 
	C490.214020,605.175781 497.200378,605.090149 503.945160,603.746338 
	C514.483521,601.646667 524.832581,598.615906 535.331238,596.293091 
	C545.150024,594.120667 553.305237,589.158325 560.289246,582.176208 
	C706.885986,435.619476 853.505798,289.085693 999.930725,142.357468 
	C1010.129333,132.137802 1019.110168,120.612320 1022.461365,105.861420 
	C1022.636902,105.088600 1024.123657,104.613625 1025.000000,103.999992 
	C1025.000000,410.937256 1025.000000,717.874512 1025.000000,1024.905884 
	C683.666687,1024.905884 342.333344,1024.905884 1.000004,1024.901611 
	C1.000000,985.239136 1.000000,945.580811 1.379828,905.485291 
	C2.491915,906.216248 3.492409,907.295776 3.912509,908.567078 
	C6.478627,916.332703 8.365948,924.373901 11.544728,931.871582 
	C14.741668,939.412109 18.591131,946.830505 23.218821,953.571899 
	C29.425766,962.613892 35.902523,971.704956 43.610867,979.430603 
	C57.403847,993.254456 73.449776,1004.167969 91.908058,1011.127014 
	C104.197906,1015.760559 116.606804,1019.877563 129.959702,1020.084778 
	C133.108978,1020.133667 136.250275,1020.695435 139.660858,1021.315125 
	C141.578278,1021.739258 143.230042,1021.983582 144.881836,1021.983765 
	C338.161987,1022.000854 531.442139,1022.002197 724.722290,1021.962097 
	C726.468750,1021.961731 728.215088,1021.393860 730.384766,1020.995972 
	C746.383606,1020.477478 761.652893,1017.537903 775.879028,1011.617676 
	C793.679443,1004.209961 809.984253,993.825500 824.015808,980.390991 
	C836.478638,968.458435 846.252869,954.454956 853.776978,938.940247 
	C860.088318,925.926270 865.114624,912.492371 866.145813,897.852661 
	C866.242859,896.474670 867.243896,895.160400 867.883545,893.363831 
	C867.967163,890.579834 868.014709,888.248657 868.014587,885.917419 
	C868.008667,761.335205 867.997864,636.752991 867.989807,512.170776 
	C867.986694,464.036713 868.005005,415.902649 867.930359,367.768707 
	C867.927429,365.848206 867.064758,363.929047 866.409302,361.962097 
	C865.947266,361.883453 865.685486,361.913269 865.036621,362.043579 
	C864.429810,362.532684 864.217102,362.982574 863.896484,363.514618 
	C863.651428,363.716553 863.532593,363.852325 863.037598,364.043335 
	C862.430176,364.532776 862.217163,364.982880 861.896240,365.514954 
	C861.651428,365.716675 861.532593,365.852386 861.037659,366.043335 
	C860.430237,366.532776 860.217224,366.982880 859.896301,367.514954 
	C859.651428,367.716675 859.532593,367.852386 859.037659,368.043335 
	C858.430237,368.532776 858.217224,368.982880 857.896301,369.514954 
	C857.651428,369.716675 857.532593,369.852386 857.037659,370.043335 
	C856.430237,370.532776 856.217224,370.982880 855.896301,371.514954 
	C855.651428,371.716675 855.532593,371.852386 855.037598,372.043335 
	C854.430237,372.532776 854.217224,372.982880 853.896240,373.514954 
	C853.651428,373.716675 853.532593,373.852386 853.037659,374.043335 
	C852.430298,374.532776 852.217285,374.982880 851.896301,375.514954 
	C851.651428,375.716675 851.532593,375.852386 851.037659,376.043335 
	C850.430298,376.532776 850.217285,376.982880 849.896301,377.514954 
	C849.651428,377.716675 849.532593,377.852386 849.037659,378.043335 
	C848.430298,378.532776 848.217285,378.982880 847.896301,379.514954 
	C847.651428,379.716675 847.532593,379.852386 847.037720,380.043335 
	C846.430359,380.532745 846.217285,380.982819 845.896240,381.514954 
	C845.651184,381.716766 845.532227,381.852448 845.037354,382.043152 
	C844.430237,382.531952 844.217224,382.981567 843.895996,383.513855 
	C843.650452,383.716858 843.530579,383.852692 843.035095,384.042755 
	C842.429321,384.529999 842.216736,384.978485 841.895874,385.510925 
	C841.649719,385.716431 841.528503,385.852783 841.031616,386.042419 
	C840.427551,386.528625 840.215820,386.976257 839.895874,387.508789 
	C839.649597,387.715973 839.527771,387.852692 839.029968,388.042358 
	C838.426636,388.528320 838.215393,388.975800 837.895874,389.508301 
	C837.649719,389.715851 837.527832,389.852692 837.029968,390.042358 
	C836.426636,390.528320 836.215332,390.975769 835.895874,391.508301 
	C835.649719,391.715851 835.527832,391.852692 835.029907,392.042358 
	C834.426636,392.528320 834.215332,392.975769 833.895874,393.508270 
	C833.649719,393.715851 833.527832,393.852692 833.029968,394.042358 
	C832.426636,394.528320 832.215332,394.975769 831.895874,395.508301 
	C831.649719,395.715851 831.527832,395.852692 831.029968,396.042358 
	C830.426697,396.528351 830.215393,396.975800 829.895874,397.508301 
	C829.649719,397.715851 829.527832,397.852692 829.029968,398.042358 
	C828.426636,398.528320 828.215393,398.975800 827.895874,399.508301 
	C827.649719,399.715851 827.527832,399.852692 827.029968,400.042358 
	C826.426697,400.528259 826.215393,400.975677 825.895874,401.508240 
	C825.649597,401.715973 825.527588,401.852814 825.029785,402.042297 
	C824.426880,402.527710 824.215698,402.974762 823.895996,403.507568 
	C823.649048,403.716553 823.525940,403.853485 822.959045,404.097168 
	C822.332764,406.323303 822.019592,408.456451 822.019226,410.589630 
	C821.996460,563.881409 821.997742,717.173157 822.002502,870.464905 
	C822.002625,874.963196 822.059998,879.461426 821.935669,884.314148 
	C821.196899,886.547791 820.507019,888.401550 820.050293,890.311096 
	C818.910645,895.075745 818.177124,899.958069 816.742065,904.627686 
	C813.061340,916.604980 806.394897,926.895752 798.944763,936.927185 
	C788.587769,950.872559 774.523682,959.918030 759.462402,967.149292 
	C746.968506,973.147949 733.191040,975.475281 719.071533,975.468994 
	C528.958923,975.384460 338.846252,975.456055 148.733780,975.283569 
	C139.556137,975.275269 130.003586,974.630005 121.295578,972.033997 
	C109.499680,968.517395 97.943459,963.270203 88.403801,955.292847 
	C80.313667,948.527649 73.140366,940.557007 66.214523,932.554504 
	C62.751564,928.553406 60.384830,923.453491 58.171776,918.557007 
	C55.105705,911.773193 52.220551,904.843506 50.062851,897.732056 
	C48.116673,891.317810 47.253513,884.574951 45.942863,877.508972 
	C45.980991,684.207642 45.989075,491.374451 45.993298,298.541229 
	C45.993317,297.708649 45.937943,296.876099 46.033653,295.672058 
	C47.560612,287.737305 48.058262,279.859894 50.554401,272.676941 
	C55.577946,258.221100 62.528019,244.644257 73.222855,233.323502 
	C81.212776,224.866013 90.138176,217.838928 100.453720,212.212555 
	C109.914909,207.052155 119.577118,203.303711 130.216019,201.862778 
	C131.554260,201.681503 132.767426,200.576721 134.506104,199.924225 
	C299.413177,199.964951 463.852692,199.981644 628.292236,199.990158 
	C629.455688,199.990219 630.619202,199.877762 632.110474,199.730560 
	C645.928955,186.281067 659.419861,172.919083 672.908508,159.554886 
	C673.144714,159.320831 673.400085,159.087372 673.568848,158.806900 
	C675.115784,156.237076 674.726440,154.180847 671.572266,153.673981 
	C668.964478,153.254929 666.258362,153.380005 663.595825,153.379822 
	C501.805817,153.368881 340.015839,153.374084 178.225830,153.364471 
	C158.309723,153.363297 138.387939,153.144119 118.695496,156.918640 
	C111.019463,158.389954 103.186981,158.761200 95.997169,162.673721 
	C86.666153,167.751434 76.537239,171.427780 67.444534,176.865677 
	C44.958370,190.313599 28.276535,209.509842 16.064007,232.482208 
	C10.124124,243.655426 5.637037,255.521637 3.781294,268.220337 
	C3.629339,269.260162 1.962786,270.078674 0.999999,271.000000 
z"/>
<path fill="#112D54" opacity="1.000000" stroke="none" 
	d="
M853.432007,374.003998 
	C853.532593,373.852386 853.651428,373.716675 854.208252,373.358551 
	C854.896118,372.748108 855.164062,372.376038 855.432007,372.003998 
	C855.532593,371.852386 855.651428,371.716675 856.208313,371.358582 
	C856.896179,370.748138 857.164124,370.376099 857.432007,370.004028 
	C857.532593,369.852386 857.651428,369.716675 858.208252,369.358551 
	C858.896118,368.748108 859.164062,368.376068 859.432007,368.003998 
	C859.532593,367.852386 859.651428,367.716675 860.208252,367.358551 
	C860.896118,366.748108 861.164062,366.376068 861.432007,366.003998 
	C861.532593,365.852386 861.651428,365.716675 862.208252,365.358521 
	C862.896118,364.748108 863.164001,364.376068 863.431946,364.004028 
	C863.532593,363.852325 863.651428,363.716553 864.208130,363.358276 
	C864.895386,362.747986 865.163025,362.376221 865.430664,362.004425 
	C865.685486,361.913269 865.947266,361.883453 866.464478,362.428650 
	C866.815308,366.267212 867.007263,369.592102 867.007202,372.916992 
	C867.005676,543.595093 866.983398,714.273193 867.007019,884.951294 
	C867.007385,887.906433 867.540649,890.861511 867.825256,893.816589 
	C867.243896,895.160400 866.242859,896.474670 866.145813,897.852661 
	C865.114624,912.492371 860.088318,925.926270 853.776978,938.940247 
	C846.252869,954.454956 836.478638,968.458435 824.015808,980.390991 
	C809.984253,993.825500 793.679443,1004.209961 775.879028,1011.617676 
	C761.652893,1017.537903 746.383606,1020.477478 729.917358,1020.982361 
	C726.861633,1021.042480 724.696594,1021.002502 722.531494,1021.002563 
	C528.152771,1021.006836 333.773987,1021.014221 139.395248,1021.021301 
	C136.250275,1020.695435 133.108978,1020.133667 129.959702,1020.084778 
	C116.606804,1019.877563 104.197906,1015.760559 91.908058,1011.127014 
	C73.449776,1004.167969 57.403847,993.254456 43.610867,979.430603 
	C35.902523,971.704956 29.425766,962.613892 23.218821,953.571899 
	C18.591131,946.830505 14.741668,939.412109 11.544728,931.871582 
	C8.365948,924.373901 6.478627,916.332703 3.912509,908.567078 
	C3.492409,907.295776 2.491915,906.216248 1.379828,905.024048 
	C1.000000,693.979126 1.000000,482.958221 0.999999,271.468658 
	C1.962786,270.078674 3.629339,269.260162 3.781294,268.220337 
	C5.637037,255.521637 10.124124,243.655426 16.064007,232.482208 
	C28.276535,209.509842 44.958370,190.313599 67.444534,176.865677 
	C76.537239,171.427780 86.666153,167.751434 95.997169,162.673721 
	C103.186981,158.761200 111.019463,158.389954 118.695496,156.918640 
	C138.387939,153.144119 158.309723,153.363297 178.225830,153.364471 
	C340.015839,153.374084 501.805817,153.368881 663.595825,153.379822 
	C666.258362,153.380005 668.964478,153.254929 671.572266,153.673981 
	C674.726440,154.180847 675.115784,156.237076 673.568848,158.806900 
	C673.400085,159.087372 673.144714,159.320831 672.908508,159.554886 
	C659.419861,172.919083 645.928955,186.281067 631.749023,199.565613 
	C629.243103,199.326370 627.426636,199.023529 625.610107,199.023315 
	C464.210205,199.003555 302.810303,199.003098 141.410431,199.045959 
	C138.953049,199.046616 136.495850,199.602875 134.038559,199.899841 
	C132.767426,200.576721 131.554260,201.681503 130.216019,201.862778 
	C119.577118,203.303711 109.914909,207.052155 100.453720,212.212555 
	C90.138176,217.838928 81.212776,224.866013 73.222855,233.323502 
	C62.528019,244.644257 55.577946,258.221100 50.554401,272.676941 
	C48.058262,279.859894 47.560612,287.737305 45.869347,296.048645 
	C45.387550,298.943756 45.027222,301.090790 45.026924,303.237885 
	C45.000893,492.360809 44.999130,681.483765 45.040134,870.606689 
	C45.040665,873.063538 45.609264,875.520264 45.912716,877.977051 
	C47.253513,884.574951 48.116673,891.317810 50.062851,897.732056 
	C52.220551,904.843506 55.105705,911.773193 58.171776,918.557007 
	C60.384830,923.453491 62.751564,928.553406 66.214523,932.554504 
	C73.140366,940.557007 80.313667,948.527649 88.403801,955.292847 
	C97.943459,963.270203 109.499680,968.517395 121.295578,972.033997 
	C130.003586,974.630005 139.556137,975.275269 148.733780,975.283569 
	C338.846252,975.456055 528.958923,975.384460 719.071533,975.468994 
	C733.191040,975.475281 746.968506,973.147949 759.462402,967.149292 
	C774.523682,959.918030 788.587769,950.872559 798.944763,936.927185 
	C806.394897,926.895752 813.061340,916.604980 816.742065,904.627686 
	C818.177124,899.958069 818.910645,895.075745 820.050293,890.311096 
	C820.507019,888.401550 821.196899,886.547791 822.099731,883.937134 
	C822.613464,879.059204 822.977539,874.912781 822.978333,870.766235 
	C823.007690,718.669983 823.000549,566.573730 823.020874,414.477478 
	C823.021301,410.986359 823.279907,407.495270 823.418091,404.004181 
	C823.525940,403.853485 823.649048,403.716553 824.206177,403.352966 
	C824.890442,402.743073 825.156006,402.373535 825.421570,402.003967 
	C825.527588,401.852814 825.649597,401.715973 826.206177,401.353516 
	C826.890503,400.743713 827.156250,400.373779 827.421997,400.003845 
	C827.527832,399.852692 827.649719,399.715851 828.206238,399.353516 
	C828.890503,398.743713 829.156250,398.373779 829.421997,398.003845 
	C829.527832,397.852692 829.649719,397.715851 830.206177,397.353485 
	C830.890503,396.743713 831.156250,396.373749 831.421997,396.003845 
	C831.527832,395.852692 831.649719,395.715851 832.206238,395.353516 
	C832.890503,394.743713 833.156250,394.373779 833.421997,394.003845 
	C833.527832,393.852692 833.649719,393.715851 834.206238,393.353516 
	C834.890564,392.743744 835.156311,392.373810 835.421997,392.003845 
	C835.527832,391.852692 835.649719,391.715851 836.206238,391.353516 
	C836.890564,390.743744 837.156250,390.373779 837.421997,390.003845 
	C837.527832,389.852692 837.649719,389.715851 838.206238,389.353516 
	C838.890564,388.743744 839.156250,388.373779 839.421997,388.003815 
	C839.527771,387.852692 839.649597,387.715973 840.206482,387.353882 
	C840.891541,386.744019 841.157715,386.373932 841.423889,386.003876 
	C841.528503,385.852783 841.649719,385.716431 842.207153,385.355530 
	C842.893921,384.745422 843.161072,384.374695 843.428284,384.003967 
	C843.530579,383.852692 843.650452,383.716858 844.207886,383.357727 
	C844.895691,382.747314 845.163574,382.375671 845.431396,382.003998 
	C845.532227,381.852448 845.651184,381.716766 846.208252,381.358521 
	C846.896118,380.748077 847.164062,380.376038 847.432007,380.003998 
	C847.532593,379.852386 847.651428,379.716675 848.208252,379.358521 
	C848.896118,378.748108 849.164062,378.376038 849.432007,378.003967 
	C849.532593,377.852386 849.651428,377.716675 850.208252,377.358582 
	C850.896118,376.748138 851.164062,376.376068 851.432007,376.004028 
	C851.532593,375.852386 851.651428,375.716675 852.208252,375.358551 
	C852.896118,374.748108 853.164062,374.376038 853.432007,374.003998 
z"/>
<path fill="#122D54" opacity="1.000000" stroke="none" 
	d="
M1025.000000,103.531334 
	C1024.123657,104.613625 1022.636902,105.088600 1022.461365,105.861420 
	C1019.110168,120.612320 1010.129333,132.137802 999.930725,142.357468 
	C853.505798,289.085693 706.885986,435.619476 560.289246,582.176208 
	C553.305237,589.158325 545.150024,594.120667 535.331238,596.293091 
	C524.832581,598.615906 514.483521,601.646667 503.945160,603.746338 
	C497.200378,605.090149 490.214020,605.175781 483.366577,606.062012 
	C474.742279,607.178345 466.149231,608.535889 457.542725,609.789734 
	C457.377869,609.813782 457.214417,609.856018 457.048889,609.866150 
	C445.487488,610.575623 433.924103,611.254333 422.365570,612.007690 
	C419.026581,612.225342 417.558197,611.202087 417.824432,607.490784 
	C418.724640,594.940613 419.074982,582.347412 420.142731,569.813904 
	C421.107880,558.484497 422.297241,547.137085 424.196777,535.934753 
	C426.159576,524.359131 429.668854,513.037598 431.468628,501.444489 
	C433.893707,485.823730 442.689148,474.570892 453.466888,463.810516 
	C597.754822,319.755188 741.897217,175.554047 886.007996,31.321491 
	C894.739441,22.582718 904.261108,14.768613 915.775269,10.645728 
	C924.680786,7.456919 934.438721,6.467360 943.904785,5.105852 
	C948.303589,4.473164 952.978577,5.968124 957.275696,6.273486 
	C967.866272,7.026077 977.049927,10.881939 986.361389,14.996503 
	C994.059387,18.398146 1001.070007,23.002119 1005.834900,29.966328 
	C1011.350281,38.027554 1016.164917,46.577442 1021.086060,55.030262 
	C1022.496338,57.452625 1023.222107,60.273525 1024.630859,62.955849 
	C1025.000000,76.354225 1025.000000,89.708458 1025.000000,103.531334 
M816.977966,258.478149 
	C842.187500,233.261475 867.456116,208.103592 892.590271,182.811996 
	C918.980347,156.256592 945.283081,129.613907 971.531982,102.918884 
	C978.732605,95.595970 981.719788,81.058044 976.141541,69.496124 
	C970.091125,56.955738 959.678589,51.134117 947.019775,50.645142 
	C937.874207,50.291882 929.567200,54.838642 922.562988,61.854591 
	C776.640625,208.019913 630.564026,354.031189 484.544098,500.099091 
	C482.325562,502.318329 479.386414,504.564209 478.588867,507.320129 
	C475.956970,516.414246 473.776886,525.682556 472.148285,535.010559 
	C470.714478,543.222656 470.253693,551.604675 469.221008,561.238159 
	C477.574402,560.192078 485.501282,559.342163 493.379059,558.164185 
	C498.891357,557.339905 504.316132,555.944763 509.816895,555.025208 
	C517.063843,553.813660 523.881470,551.500732 529.132568,546.254272 
	C624.945007,450.526184 720.697693,354.738281 816.977966,258.478149 
z"/>
<path fill="#425877" opacity="1.000000" stroke="none" 
	d="
M139.660858,1021.315125 
	C333.773987,1021.014221 528.152771,1021.006836 722.531494,1021.002563 
	C724.696594,1021.002502 726.861633,1021.042480 729.494141,1021.077332 
	C728.215088,1021.393860 726.468750,1021.961731 724.722290,1021.962097 
	C531.442139,1022.002197 338.161987,1022.000854 144.881836,1021.983765 
	C143.230042,1021.983582 141.578278,1021.739258 139.660858,1021.315125 
z"/>
<path fill="#3A506E" opacity="1.000000" stroke="none" 
	d="
M45.942863,877.508972 
	C45.609264,875.520264 45.040665,873.063538 45.040134,870.606689 
	C44.999130,681.483765 45.000893,492.360809 45.026924,303.237885 
	C45.027222,301.090790 45.387550,298.943756 45.744125,296.420105 
	C45.937943,296.876099 45.993317,297.708649 45.993298,298.541229 
	C45.989075,491.374451 45.980991,684.207642 45.942863,877.508972 
z"/>
<path fill="#3F5573" opacity="1.000000" stroke="none" 
	d="
M867.883545,893.363831 
	C867.540649,890.861511 867.007385,887.906433 867.007019,884.951294 
	C866.983398,714.273193 867.005676,543.595093 867.007202,372.916992 
	C867.007263,369.592102 866.815308,366.267212 866.657776,362.475769 
	C867.064758,363.929047 867.927429,365.848206 867.930359,367.768707 
	C868.005005,415.902649 867.986694,464.036713 867.989807,512.170776 
	C867.997864,636.752991 868.008667,761.335205 868.014587,885.917419 
	C868.014709,888.248657 867.967163,890.579834 867.883545,893.363831 
z"/>
<path fill="#425877" opacity="1.000000" stroke="none" 
	d="
M134.506104,199.924225 
	C136.495850,199.602875 138.953049,199.046616 141.410431,199.045959 
	C302.810303,199.003098 464.210205,199.003555 625.610107,199.023315 
	C627.426636,199.023529 629.243103,199.326370 631.421143,199.652893 
	C630.619202,199.877762 629.455688,199.990219 628.292236,199.990158 
	C463.852692,199.981644 299.413177,199.964951 134.506104,199.924225 
z"/>
<path fill="#3F5573" opacity="1.000000" stroke="none" 
	d="
M822.959045,404.097168 
	C823.279907,407.495270 823.021301,410.986359 823.020874,414.477478 
	C823.000549,566.573730 823.007690,718.669983 822.978333,870.766235 
	C822.977539,874.912781 822.613464,879.059204 822.254700,883.582703 
	C822.059998,879.461426 822.002625,874.963196 822.002502,870.464905 
	C821.997742,717.173157 821.996460,563.881409 822.019226,410.589630 
	C822.019592,408.456451 822.332764,406.323303 822.959045,404.097168 
z"/>
<path fill="#3F5573" opacity="1.000000" stroke="none" 
	d="
M839.029968,388.042358 
	C839.156250,388.373779 838.890564,388.743744 838.314453,389.268494 
	C838.215393,388.975800 838.426636,388.528320 839.029968,388.042358 
z"/>
<path fill="#3F5573" opacity="1.000000" stroke="none" 
	d="
M865.036621,362.043579 
	C865.163025,362.376221 864.895386,362.747986 864.316040,363.276123 
	C864.217102,362.982574 864.429810,362.532684 865.036621,362.043579 
z"/>
<path fill="#3F5573" opacity="1.000000" stroke="none" 
	d="
M863.037598,364.043335 
	C863.164001,364.376068 862.896118,364.748108 862.316162,365.276550 
	C862.217163,364.982880 862.430176,364.532776 863.037598,364.043335 
z"/>
<path fill="#3F5573" opacity="1.000000" stroke="none" 
	d="
M825.029785,402.042297 
	C825.156006,402.373535 824.890442,402.743073 824.314697,403.267212 
	C824.215698,402.974762 824.426880,402.527710 825.029785,402.042297 
z"/>
<path fill="#3F5573" opacity="1.000000" stroke="none" 
	d="
M827.029968,400.042358 
	C827.156250,400.373779 826.890503,400.743713 826.314453,401.268372 
	C826.215393,400.975677 826.426697,400.528259 827.029968,400.042358 
z"/>
<path fill="#3F5573" opacity="1.000000" stroke="none" 
	d="
M829.029968,398.042358 
	C829.156250,398.373779 828.890503,398.743713 828.314453,399.268463 
	C828.215393,398.975800 828.426636,398.528320 829.029968,398.042358 
z"/>
<path fill="#3F5573" opacity="1.000000" stroke="none" 
	d="
M831.029907,396.042358 
	C831.156250,396.373749 830.890503,396.743713 830.314453,397.268433 
	C830.215393,396.975800 830.426697,396.528351 831.029907,396.042358 
z"/>
<path fill="#3F5573" opacity="1.000000" stroke="none" 
	d="
M833.029968,394.042358 
	C833.156250,394.373779 832.890503,394.743713 832.314453,395.268463 
	C832.215332,394.975769 832.426636,394.528320 833.029968,394.042358 
z"/>
<path fill="#3F5573" opacity="1.000000" stroke="none" 
	d="
M835.029907,392.042358 
	C835.156311,392.373810 834.890564,392.743744 834.314453,393.268433 
	C834.215332,392.975769 834.426636,392.528320 835.029907,392.042358 
z"/>
<path fill="#3F5573" opacity="1.000000" stroke="none" 
	d="
M837.029968,390.042358 
	C837.156250,390.373779 836.890564,390.743744 836.314453,391.268463 
	C836.215332,390.975769 836.426636,390.528320 837.029968,390.042358 
z"/>
<path fill="#3F5573" opacity="1.000000" stroke="none" 
	d="
M861.037659,366.043335 
	C861.164062,366.376068 860.896118,366.748108 860.316162,367.276581 
	C860.217224,366.982880 860.430237,366.532776 861.037659,366.043335 
z"/>
<path fill="#3F5573" opacity="1.000000" stroke="none" 
	d="
M841.031616,386.042419 
	C841.157715,386.373932 840.891541,386.744019 840.314758,387.269012 
	C840.215820,386.976257 840.427551,386.528625 841.031616,386.042419 
z"/>
<path fill="#3F5573" opacity="1.000000" stroke="none" 
	d="
M843.035095,384.042755 
	C843.161072,384.374695 842.893921,384.745422 842.315430,385.271545 
	C842.216736,384.978485 842.429321,384.529999 843.035095,384.042755 
z"/>
<path fill="#3F5573" opacity="1.000000" stroke="none" 
	d="
M845.037354,382.043152 
	C845.163574,382.375671 844.895691,382.747314 844.316040,383.275085 
	C844.217224,382.981567 844.430237,382.531952 845.037354,382.043152 
z"/>
<path fill="#3F5573" opacity="1.000000" stroke="none" 
	d="
M847.037720,380.043335 
	C847.164062,380.376038 846.896118,380.748077 846.316162,381.276489 
	C846.217285,380.982819 846.430359,380.532745 847.037720,380.043335 
z"/>
<path fill="#3F5573" opacity="1.000000" stroke="none" 
	d="
M849.037659,378.043335 
	C849.164062,378.376038 848.896118,378.748108 848.316162,379.276550 
	C848.217285,378.982880 848.430298,378.532776 849.037659,378.043335 
z"/>
<path fill="#3F5573" opacity="1.000000" stroke="none" 
	d="
M851.037659,376.043335 
	C851.164062,376.376068 850.896118,376.748138 850.316162,377.276611 
	C850.217285,376.982880 850.430298,376.532776 851.037659,376.043335 
z"/>
<path fill="#3F5573" opacity="1.000000" stroke="none" 
	d="
M853.037659,374.043335 
	C853.164062,374.376038 852.896118,374.748108 852.316162,375.276581 
	C852.217285,374.982880 852.430298,374.532776 853.037659,374.043335 
z"/>
<path fill="#3F5573" opacity="1.000000" stroke="none" 
	d="
M855.037598,372.043335 
	C855.164062,372.376038 854.896118,372.748108 854.316162,373.276581 
	C854.217224,372.982880 854.430237,372.532776 855.037598,372.043335 
z"/>
<path fill="#3F5573" opacity="1.000000" stroke="none" 
	d="
M857.037720,370.043335 
	C857.164124,370.376099 856.896179,370.748138 856.316223,371.276611 
	C856.217224,370.982880 856.430237,370.532776 857.037720,370.043335 
z"/>
<path fill="#3F5573" opacity="1.000000" stroke="none" 
	d="
M859.037659,368.043335 
	C859.164062,368.376068 858.896118,368.748108 858.316162,369.276581 
	C858.217224,368.982880 858.430237,368.532776 859.037659,368.043335 
z"/>
<path fill="#000000" opacity="1.000000" stroke="none" 
	d="
M816.720581,258.720642 
	C720.697693,354.738281 624.945007,450.526184 529.132568,546.254272 
	C523.881470,551.500732 517.063843,553.813660 509.816895,555.025208 
	C504.316132,555.944763 498.891357,557.339905 493.379059,558.164185 
	C485.501282,559.342163 477.574402,560.192078 469.221008,561.238159 
	C470.253693,551.604675 470.714478,543.222656 472.148285,535.010559 
	C473.776886,525.682556 475.956970,516.414246 478.588867,507.320129 
	C479.386414,504.564209 482.325562,502.318329 484.544098,500.099091 
	C630.564026,354.031189 776.640625,208.019913 922.562988,61.854591 
	C929.567200,54.838642 937.874207,50.291882 947.019775,50.645142 
	C959.678589,51.134117 970.091125,56.955738 976.141541,69.496124 
	C981.719788,81.058044 978.732605,95.595970 971.531982,102.918884 
	C945.283081,129.613907 918.980347,156.256592 892.590271,182.811996 
	C867.456116,208.103592 842.187500,233.261475 816.720581,258.720642 
z"/>
</svg>