<svg version="1.1" id="Layer_1" xmlns="http://www.w3.org/2000/svg" xmlns:xlink="http://www.w3.org/1999/xlink" x="0px" y="0px"
	 width="100%" viewBox="0 0 64 64" enable-background="new 0 0 64 64" xml:space="preserve">
<path fill="#112D54" opacity="1.000000" stroke="none" 
	d="
M53.000000,65.000000 
	C39.979103,65.000000 26.958210,65.000000 13.454082,64.627533 
	C11.981513,60.493988 10.319266,56.765060 10.137735,52.965389 
	C9.711118,44.035763 10.046887,35.071648 9.934440,26.123245 
	C9.914966,24.573553 9.356568,22.975561 8.784054,21.502081 
	C8.095859,19.730875 5.968714,17.362612 6.498671,16.494257 
	C7.999211,14.035570 10.638228,10.358594 12.649149,10.467866 
	C19.926510,10.863306 21.521460,5.656678 24.000000,1.000000 
	C30.021152,1.000000 36.042305,1.000000 42.532013,1.367224 
	C44.691643,7.231135 47.386696,10.669371 54.170582,10.532299 
	C56.350754,10.488247 58.724377,15.159834 60.753670,17.865885 
	C61.050201,18.261309 60.067390,20.446283 59.419708,20.582565 
	C55.697483,21.365786 56.009262,24.108419 56.007675,26.779224 
	C56.003319,34.102222 55.894077,41.427303 56.034916,48.747547 
	C56.143768,54.405159 56.262833,60.000446 53.000000,65.000000 
M45.192196,21.021456 
	C37.037861,21.022158 28.882408,21.101671 20.729731,20.985859 
	C17.335180,20.937637 15.889421,22.276346 15.988816,25.701160 
	C16.123926,30.356619 15.890953,35.022873 16.030546,39.678059 
	C16.194147,45.133804 16.295538,50.624989 17.073977,56.006771 
	C17.287209,57.480961 19.778940,59.660168 21.311810,59.734814 
	C29.113674,60.114742 36.946716,60.029037 44.763069,59.851856 
	C47.938309,59.779877 50.004967,58.118771 49.981415,54.502537 
	C49.917465,44.684662 49.935558,34.866055 49.966839,25.047886 
	C49.975304,22.391016 48.857101,20.974453 45.192196,21.021456 
M38.456795,7.943739 
	C34.638050,6.504010 30.956730,6.246522 27.551334,8.362784 
	C27.635365,9.046819 27.719395,9.730852 27.803425,10.414886 
	C31.403540,9.806875 35.003654,9.198864 38.456795,7.943739 
z"/>
<path fill="#000000" opacity="1.000000" stroke="none" 
	d="
M23.531263,1.000000 
	C21.521460,5.656678 19.926510,10.863306 12.649149,10.467866 
	C10.638228,10.358594 7.999211,14.035570 6.498671,16.494257 
	C5.968714,17.362612 8.095859,19.730875 8.784054,21.502081 
	C9.356568,22.975561 9.914966,24.573553 9.934440,26.123245 
	C10.046887,35.071648 9.711118,44.035763 10.137735,52.965389 
	C10.319266,56.765060 11.981513,60.493988 12.985424,64.627533 
	C9.017765,65.000000 5.035530,65.000000 1.026648,65.000000 
	C1.026648,43.779205 1.026648,22.558371 1.026648,1.000000 
	C8.350733,1.000000 15.706630,1.000000 23.531263,1.000000 
z"/>
<path fill="#000000" opacity="1.000000" stroke="none" 
	d="
M53.479176,65.000000 
	C56.262833,60.000446 56.143768,54.405159 56.034916,48.747547 
	C55.894077,41.427303 56.003319,34.102222 56.007675,26.779224 
	C56.009262,24.108419 55.697483,21.365786 59.419708,20.582565 
	C60.067390,20.446283 61.050201,18.261309 60.753670,17.865885 
	C58.724377,15.159834 56.350754,10.488247 54.170582,10.532299 
	C47.386696,10.669371 44.691643,7.231135 43.000286,1.367224 
	C50.298859,1.000000 57.597717,1.000000 64.948288,1.000000 
	C64.948288,22.333319 64.948288,43.666653 64.948288,65.000000 
	C61.257225,65.000000 57.607788,65.000000 53.479176,65.000000 
z"/>
<path fill="#000000" opacity="1.000000" stroke="none" 
	d="
M45.651421,21.036568 
	C48.857101,20.974453 49.975304,22.391016 49.966839,25.047886 
	C49.935558,34.866055 49.917465,44.684662 49.981415,54.502537 
	C50.004967,58.118771 47.938309,59.779877 44.763069,59.851856 
	C36.946716,60.029037 29.113674,60.114742 21.311810,59.734814 
	C19.778940,59.660168 17.287209,57.480961 17.073977,56.006771 
	C16.295538,50.624989 16.194147,45.133804 16.030546,39.678059 
	C15.890953,35.022873 16.123926,30.356619 15.988816,25.701160 
	C15.889421,22.276346 17.335180,20.937637 20.729731,20.985859 
	C28.882408,21.101671 37.037861,21.022158 45.651421,21.036568 
M21.772066,55.644222 
	C23.149904,54.721706 25.686132,53.843616 25.723484,52.869690 
	C26.040409,44.606018 25.991819,36.322594 25.780426,28.052061 
	C25.755632,27.082050 24.082388,26.154175 23.173334,25.206766 
	C22.145540,26.204063 20.307579,27.141943 20.229330,28.208879 
	C19.879007,32.985592 19.886831,37.803730 20.042959,42.597874 
	C20.180641,46.825489 20.685951,51.041134 21.772066,55.644222 
M34.980251,25.753176 
	C31.947611,24.480782 30.086212,25.243925 30.068760,28.763336 
	C30.029369,36.707188 29.958719,44.654865 30.204985,52.591541 
	C30.238955,53.686279 32.003090,54.727329 32.966232,55.793236 
	C33.950451,54.749802 35.774609,53.715866 35.786533,52.661434 
	C35.885483,43.909668 35.649700,35.154118 34.980251,25.753176 
M45.957012,28.944582 
	C44.818317,27.700779 43.679626,26.456974 42.540932,25.213171 
	C41.704369,26.596090 40.191933,27.956301 40.144581,29.365736 
	C39.898556,36.688339 39.875183,44.029102 40.147423,51.349663 
	C40.203632,52.861103 41.618954,55.334427 42.799809,55.596180 
	C45.968357,56.298531 45.952591,53.533836 45.963764,51.342117 
	C46.000286,44.178066 45.980011,37.013725 45.957012,28.944582 
z"/>
<path fill="#000000" opacity="1.000000" stroke="none" 
	d="
M38.530281,8.267296 
	C35.003654,9.198864 31.403540,9.806875 27.803425,10.414886 
	C27.719395,9.730852 27.635365,9.046819 27.551334,8.362784 
	C30.956730,6.246522 34.638050,6.504010 38.530281,8.267296 
z"/>
<path fill="#112D54" opacity="1.000000" stroke="none" 
	d="
M21.400497,55.453140 
	C20.685951,51.041134 20.180641,46.825489 20.042959,42.597874 
	C19.886831,37.803730 19.879007,32.985592 20.229330,28.208879 
	C20.307579,27.141943 22.145540,26.204063 23.173334,25.206766 
	C24.082388,26.154175 25.755632,27.082050 25.780426,28.052061 
	C25.991819,36.322594 26.040409,44.606018 25.723484,52.869690 
	C25.686132,53.843616 23.149904,54.721706 21.400497,55.453140 
z"/>
<path fill="#112D54" opacity="1.000000" stroke="none" 
	d="
M35.247681,26.076445 
	C35.649700,35.154118 35.885483,43.909668 35.786533,52.661434 
	C35.774609,53.715866 33.950451,54.749802 32.966232,55.793236 
	C32.003090,54.727329 30.238955,53.686279 30.204985,52.591541 
	C29.958719,44.654865 30.029369,36.707188 30.068760,28.763336 
	C30.086212,25.243925 31.947611,24.480782 35.247681,26.076445 
z"/>
<path fill="#112D54" opacity="1.000000" stroke="none" 
	d="
M45.969296,29.397038 
	C45.980011,37.013725 46.000286,44.178066 45.963764,51.342117 
	C45.952591,53.533836 45.968357,56.298531 42.799809,55.596180 
	C41.618954,55.334427 40.203632,52.861103 40.147423,51.349663 
	C39.875183,44.029102 39.898556,36.688339 40.144581,29.365736 
	C40.191933,27.956301 41.704369,26.596090 42.540932,25.213171 
	C43.679626,26.456974 44.818317,27.700779 45.969296,29.397038 
z"/>
</svg>